<?xml version="1.0" encoding="UTF-8"?>
<svg xmlns="http://www.w3.org/2000/svg" viewBox="0 0 730.15 1400.28">
  <g id="a" data-name="Layer 1">
    <g>
      <path d="M100.33,604.92c22.76-1.48,45.52-2.81,68.28-4.23,5.98-.37,11.96-.77,17.93-1.19,12.45-.88,24.9-1.83,37.35-2.68,12.13-.82,24.26-1.47,36.39-2.32,11.79-.82,23.56-1.85,35.35-2.66,12.46-.86,24.92-1.69,37.39-2.3,18.09-.89,36.1-4.08,54.3-1.78,4.12,.52,8.29,.69,12.44,1.04,10.28,.86,20.56,1.74,30.83,2.59,8.58,.71,17.17,1.38,26.13,2.1V167.06c-7.44,.48-14.55,.98-21.66,1.39-19.12,1.1-38.24,2.11-57.35,3.26-19.11,1.16-38.21,2.55-57.32,3.67-20.28,1.19-40.57,2.17-60.85,3.26-6.98,.37-13.97,.77-20.95,1.21-13.62,.86-27.24,1.82-40.87,2.62-14.46,.85-28.93,1.52-43.4,2.34-14.79,.84-29.58,1.84-44.37,2.64-14.97,.81-29.94,1.44-44.91,2.22-4.97,.26-9.93,.77-15.2,1.19v417.15c.59,.22,.89,.45,1.18,.43,16.43-1.16,32.86-2.43,49.3-3.5Z" fill="#4a29fe"/>
      <path d="M365.97,1000v-399.71c-9.22,.52-18.17,.92-27.1,1.54-16.78,1.16-33.54,2.52-50.32,3.67-17.28,1.18-34.57,2.14-51.84,3.31-22.09,1.5-44.17,3.2-66.27,4.66-26.42,1.75-52.86,3.34-79.28,4.98-21.94,1.36-43.89,2.68-65.83,4.02-2.29,.14-4.57,.23-7.13,.36v376.95c6.1,1.18,344.43,1.34,347.78,.22Z" fill="#ffc101"/>
      <path d="M227.7,167.92c22.59-1.38,45.19-2.7,67.79-3.99,19.77-1.12,39.56-2.14,59.33-3.24,6.81-.38,13.63-.82,20.44-1.27,12.79-.85,25.57-1.76,38.36-2.58,15.44-.99,30.89-1.91,46.34-2.9,3.37-.22,6.49,.17,9.7,1.54,25.96,11.07,51.98,22.01,78.02,32.91,18.06,7.56,36.18,14.98,54.27,22.46,.28,.17,.56,.34,1.53,.94-.7-.94-.88-1.19-1.06-1.43-2.08-2.14-4.13-4.32-6.25-6.42-45.3-44.94-90.65-89.83-135.89-134.81-16.89-16.79-33.56-33.8-50.33-50.72-117.39,9.12-234.39,18.21-352.57,27.39,42.49,42.3,84.21,83.84,125.63,125.08,15.48-1.03,30.09-2.06,44.71-2.95Z" fill="#4a29fe"/>
      <path d="M49.91,1364.92c119.27,5.99,237.94,11.95,356.92,17.92v-368.59c-119.27-.41-238.13-.82-356.92-1.22v351.89Z" fill="#ff0057"/>
      <path d="M469.37,594.47c54.29,5.03,107.75,9.99,161.58,14.98V236.53c-53.43-22.25-107.03-44.57-161.49-67.25-.02,142.32-.12,283.71-.08,425.19Z" fill="#4a29fe"/>
      <path d="M420.37,1381.52c70.29-9.83,140.22-19.53,210.34-29.81v-339.49c-70.29,.52-140.18,1.04-210.34,1.55v367.74Z" fill="#ff0057"/>
      <path d="M379.2,1001.01c94.13-.52,238.8-.37,333.24-.89v-374.23c-93.87-8.88-238.62-18.53-333.24-25.85v400.97Z" fill="#ffc101"/>
      <path d="M725.15,624.17c0-2.94-.43-5.87-.7-9.44-9.98-2.57-70.75-2.72-80.61-4.48-.09-1.69-.24-3.17-.24-4.64,0-45.33,.05-90.67,.05-136,0-76-.04-152-.1-228,0-3.47-.3-6.95-.4-9.11C565.96,156.14,489.68,80.66,413.21,5,288.96,14.72,164.37,24.47,39.83,34.21c-4.72,4.38-4.85,7.27-.55,11.78,.69,.72,1.43,1.4,2.14,2.11,39.98,39.69,79.96,79.37,119.92,119.06,1.22,1.21,2.35,2.52,4.03,4.35-42.88,2.45-84.72,4.83-126.91,7.24-.56,2.01-1.23,3.51-1.36,5.06-.24,2.82-.21,5.66-.21,8.49,0,137,0,274,.02,410.99,0,1.79,0,3.58,0,5.58-1.78,.33-3.04,.69-4.33,.77-6.64,.43-13.29,.85-19.94,1.14-2.77,.12-5.31,.46-7.27,3.44-.09,2.04-.28,4.52-.3,7.01-.05,10.33-.07,20.67-.07,31,0,116,0,232,0,348,0,1.83,0,3.67,.05,5.5,.2,5.75,1.15,6.72,6.78,6.75,6.67,.04,13.33,0,20,.02,1.45,0,2.9,.18,4.68,.29,0,1.78,0,3.26,0,4.73,.11,99.67,.21,199.33,.33,299,.02,17.17,.06,34.33,.18,51.5,.05,7.68,1.89,9.29,9.41,9.51,10.32,.3,20.64,.76,30.95,1.28,16.63,.83,33.26,1.83,49.89,2.63,16.97,.82,33.94,1.49,50.91,2.25,7.49,.34,14.97,.7,22.45,1.12,15.46,.86,30.92,1.84,46.39,2.63,16.47,.84,32.94,1.49,49.41,2.26,7.65,.36,15.31,.8,22.96,1.19,17.13,.88,34.26,1.76,51.39,2.65,10.81,.56,21.62,1.31,32.43,1.67,5.8,.19,11.66,.14,17.42-.48,10.4-1.13,20.75-2.76,31.12-4.2,12.67-1.77,25.34-3.53,38-5.36,15.12-2.18,30.24-4.43,45.36-6.65,12.82-1.88,25.63-3.8,38.45-5.65,12.66-1.83,25.33-3.56,38-5.38,8.39-1.21,16.78-2.39,25.14-3.81,2.14-.36,4.14-1.58,6.49-2.52v-349.26c2.17-.12,3.79-.28,5.42-.29,6.17-.03,63.08,.68,69.25,.64,5.84-.03,6.87-1.08,7.08-7.05,.07-2,.07-4,.07-6,0-54-.05-108-.02-162,.04-71,.14-142,.17-213ZM57.36,45.79c118.18-9.18,235.18-18.27,352.57-27.39,16.78,16.92,33.45,33.93,50.33,50.72,45.25,44.99,90.59,89.88,135.89,134.81,2.12,2.1,4.17,4.28,6.25,6.42,.18,.24,.36,.48,1.06,1.43-.97-.6-1.25-.77-1.53-.94-18.09-7.48-36.21-14.9-54.27-22.46-26.04-10.9-52.06-21.84-78.02-32.91-3.21-1.37-6.33-1.76-9.7-1.54-15.44,1-30.89,1.91-46.34,2.9-12.79,.82-25.57,1.73-38.36,2.58-6.81,.45-13.62,.89-20.44,1.27-19.78,1.09-39.56,2.12-59.33,3.24-22.6,1.28-45.2,2.61-67.79,3.99-14.62,.89-29.22,1.92-44.71,2.95-41.42-41.23-83.14-82.78-125.63-125.08ZM630.94,236.53v372.92c-53.83-4.99-107.28-9.95-161.58-14.98-.04-141.48,.06-282.87,.08-425.19,54.47,22.68,108.06,45,161.49,67.25ZM49.85,190.86c5.27-.42,10.23-.93,15.2-1.19,14.97-.79,29.94-1.41,44.91-2.22,14.79-.8,29.58-1.8,44.37-2.64,14.46-.82,28.93-1.49,43.4-2.34,13.63-.8,27.24-1.76,40.87-2.62,6.98-.44,13.96-.83,20.95-1.21,20.28-1.09,40.57-2.07,60.85-3.26,19.11-1.12,38.21-2.51,57.32-3.67,19.11-1.16,38.23-2.16,57.35-3.26,7.11-.41,14.22-.91,21.66-1.39v426.44c-8.96-.72-17.55-1.39-26.13-2.1-10.28-.85-20.56-1.73-30.83-2.59-4.15-.35-8.31-.51-12.44-1.04-18.2-2.3-36.21,.89-54.3,1.78-12.47,.61-24.93,1.45-37.39,2.3-11.79,.81-23.56,1.84-35.35,2.66-12.12,.84-24.26,1.5-36.39,2.32-12.45,.84-24.9,1.79-37.35,2.68-5.98,.42-11.95,.82-17.93,1.19-22.76,1.41-45.53,2.74-68.28,4.23-16.44,1.07-32.86,2.34-49.3,3.5-.29,.02-.6-.21-1.18-.43V190.86ZM18.19,999.78v-376.95c2.56-.13,4.85-.22,7.13-.36,21.94-1.33,43.89-2.66,65.83-4.02,26.43-1.64,52.86-3.24,79.28-4.98,22.09-1.46,44.17-3.16,66.27-4.66,17.28-1.17,34.57-2.13,51.84-3.31,16.78-1.15,33.54-2.51,50.32-3.67,8.93-.62,17.88-1.02,27.1-1.54v399.71c-3.35,1.12-341.67,.95-347.78-.22Zm388.64,383.06c-118.98-5.97-237.65-11.93-356.92-17.92v-351.89c118.79,.41,237.65,.81,356.92,1.22v368.59Zm223.88-31.13c-70.12,10.28-140.06,19.97-210.34,29.81v-367.74c70.17-.52,140.06-1.03,210.34-1.55v339.49Zm81.72-351.6c-94.44,.52-239.1,.37-333.24,.89v-400.97c94.62,7.32,239.37,16.97,333.24,25.85v374.23Z"/>
    </g>
  </g>
  <g id="b" data-name="Layer 2">
    <g>
      <path d="M453.25,985.86v-49.16c0-3.36,.29-286.64,.59-290.63l-1.18-.08-12.37,339.97-15.41,.13-12.53-342.92-1.2-.08c.3,3.9,.6,264.22,.6,293.48v49.63s-14.71,.12-14.71,.12v-364.98l26.05,1.94,9.21,336.19h1.18s9.16-334.74,9.16-334.74l25.22,1.88v359.11l-14.63,.12Z" fill="#fff"/>
      <path d="M507.74,985.4l-2.86-27.03-14.09,.03-2.6,27.17-15.66,.13,12.76-357.77,25.3,1.89,12.82,355.46-15.68,.13Zm-16.09-34.62h12.37s-5.45-306.65-5.45-306.65l-1.15-.08-5.76,306.74Z" fill="#fff"/>
      <path d="M559.48,984.97l-10.08-44.54h-.56s-4.78,11.9-4.78,11.9v32.77s-15.82,.13-15.82,.13v-354.11l15.82,1.18v289.3s1.12,0,1.12,0l14.58-288.14,15.58,1.16-14.75,286.76,14.47,63.44-15.59,.13Z" fill="#fff"/>
      <path d="M579.78,984.8v-349.84l33.49,2.5v7.87l-18.33-1.33v282.9s16.42,.09,16.42,.09v7.72l-16.42-.06v42.29l19.42-.13v7.71l-34.58,.29Z" fill="#fff"/>
      <path d="M635.75,984.33v-345.2s15.03,1.12,15.03,1.12v343.95s-15.03,.13-15.03,.13Z" fill="#fff"/>
      <path d="M669.68,984.05v-334.63l-13.56-.99v-7.79s41.99,3.13,41.99,3.13v7.71l-13.64-.99v333.43l-14.79,.12Z" fill="#fff"/>
    </g>
    <g>
      <path d="M72.04,1351.06v-318.22h41.21v6.24h-22.75l-.67,267.95,18.51,.64v6.15l-18.51-.66v38.62l-17.79-.72Z" fill="#fff"/>
      <path d="M118.27,1352.92l1.56-320.09h18.46l-2.02,314.52,23.59,.93v6.31l-41.59-1.68Z" fill="#fff"/>
      <path d="M200.26,1032.84h18.13l-3.06,313.79c0,6.85-8.86,10.23-25.88,9.54-16.62-.67-26.04-4.39-26.04-11.45l2.56-311.89h17.8l-2.8,312.95c0,2.48,2.93,3.84,8.15,4.04,5.55,.22,8.17-.92,8.17-3.4l2.96-313.58Z" fill="#fff"/>
      <path d="M283,1032.84l-20.06,282.45,18,44.21-18.99-.77-11.29-33.23-1.33-.05-11.58,32.31-18.46-.75,18.13-41.11-14.41-283.06h18.46l8.19,273.35,1.33,.04,13.89-273.4h18.13Z" fill="#fff"/>
      <path d="M306.73,1360.53l2.31-327.7h18.46l-1.9,328.46-18.87-.76Z" fill="#fff"/>
      <path d="M349.64,1362.27l1.25-323.19h-16.81v-6.24h52.41v6.24h-17.14l-.65,323.96-19.07-.77Z" fill="#fff"/>
    </g>
    <g>
      <path d="M71.87,581.04V216.69l28.74-1.32c14.65-.67,19.94,.76,19.94,3.72l-.24,331.98c0,1.99-3.1,3.38-10.23,4.16v.27c7.13-.18,11.77,.4,11.77,2.92v15.61c-.01,2.52-5.28,4.18-19.23,5.07l-30.75,1.94ZM104.35,220.65c0-1.48-1.87-2.13-7.17-1.89l-8.12,.37-.09,336.15,8.08-.5c4.34-.27,7.14-.91,7.14-2.3l.16-331.83Zm.14,338.59c0-1.26-2.17-1.66-7.76-1.31l-7.76,.48v18.37s7.76-.49,7.76-.49c5.59-.35,7.76-1.09,7.76-2.35v-14.7Z" fill="#fff"/>
      <path d="M128.32,577.48l.31-363.39,29.2-1.34c14.57-.67,19.83,.76,19.83,3.71l-.53,332.63c0,1.99-4.01,3.36-10.49,4.1v.27c6.78-.09,10.78,.52,10.78,2.84l-.03,18.09-16.64,1.05,.02-18.44c0-1.06-1.85-1.54-7.1-1.22l-8.34,.52-.02,20.11-17,1.07Zm32.61-359.85c0-1.14-2.17-1.51-7.13-1.28l-8.07,.37-.38,336.59,8.03-.5c4.63-.29,7.1-1.04,7.1-2.3l.45-332.88Z" fill="#fff"/>
      <path d="M184.17,573.95l.62-362.45,37.69-1.73v3.41s-20.69,.95-20.69,.95l-.66,334.06,18.43-1.14v3.31s-18.44,1.14-18.44,1.14l-.04,18.07,21.8-1.37v3.31s-38.71,2.44-38.71,2.44Z" fill="#fff"/>
      <path d="M263.57,568.94l-3.02-11.09-14.98,.94-2.78,11.47-16.54,1.04,14.4-362.36,27.05-1.24,12.66,360.18-16.79,1.06Zm-17.08-13.38l13.15-.82-4.87-340.04-1.23,.06-7.05,340.8Z" fill="#fff"/>
      <path d="M319.31,565.42l-10.88-18.08-.61,.04-5.19,5.33-.05,13.77-17.05,1.08,1.17-360.73,17.15-.79-1.17,333.76,1.22-.08,17.07-334.47,17.09-.79-17.44,334.08,15.68,25.8-17,1.07Z" fill="#fff"/>
      <path d="M359.63,562.88l1.58-359.47,17.03-.78-1.67,359.19-16.93,1.07Z" fill="#fff"/>
      <path d="M397.99,560.45l1.77-355.44-15.47,.71,.02-3.38,48.16-2.21-.02,3.38-15.73,.72-1.86,355.16-16.87,1.07Z" fill="#fff"/>
    </g>
    <path d="M179.25,942.63c-4.83,5.08-9.56,10.04-14.26,14.99-8.52,8.97-16.93,17.9-25.36,26.65-.78,.81-2.1,1.37-3.17,1.37-35.94,.07-70.59,.06-104.03,.05-.6,0-1.19-.08-1.89-.12v-22.32c33.68-.4,68.5-.82,104.6-1.25,.04-.19,.08-.38,.12-.57-31.2-18.85-61.42-37.11-90.86-54.9,3.43-6.8,6.78-13.42,10.27-20.33,29.76,17.56,60.38,35.63,92,54.28,.12-.13,.25-.25,.37-.38-18.31-33.14-36.28-65.68-54.11-97.97,6.27-4.34,12.47-8.63,18.99-13.14,18.1,32.32,36.48,65.13,55.21,98.57,.14-.03,.29-.07,.43-.1v-118.53c7.88-.69,15.52-1.36,23.49-2.06v119.89c.19,.06,.37,.12,.56,.18,19.77-35.57,39.93-71.84,60.68-109.16,7.11,3.62,14.15,7.21,21.48,10.95-20.86,37.5-41.18,74.02-61.1,109.84,.11,.15,.21,.3,.32,.44,34.86-21.46,70.92-43.67,108.46-66.78,4.48,7.32,8.89,14.53,13.53,22.11-37.86,22.79-74.35,44.75-109.62,65.98,.05,.17,.1,.34,.14,.52,40.95-.49,83.55-1,128.14-1.54v26.25c-.86,.04-1.83,.14-2.81,.14-43.87,0-86.01,.02-126.54-.06-1.3,0-2.91-.68-3.86-1.63-13.32-13.31-26.38-26.56-39.29-39.61-.56-.57-1.16-1.09-1.88-1.76Z" fill="#fff"/>
  </g>
</svg>