<?xml version="1.0" encoding="utf-8"?>
<!-- Generator: Adobe Illustrator 26.5.0, SVG Export Plug-In . SVG Version: 6.00 Build 0)  -->
<svg version="1.1" xmlns="http://www.w3.org/2000/svg" xmlns:xlink="http://www.w3.org/1999/xlink" x="0px" y="0px"
	 viewBox="0 0 720.1 1390.3" style="enable-background:new 0 0 720.1 1390.3;" xml:space="preserve">
<style type="text/css">
	.st0{fill:#4A29FE;}
	.st1{fill:#FFC101;}
	.st2{fill:#FF0057;}
	.st3{display:none;}
	.st4{display:inline;}
	.st5{fill:#FFFFFF;}
</style>
<g id="Layer_1">
	<g>
		<path class="st0" d="M95.3,599.9c22.8-1.5,45.5-2.8,68.3-4.2c6-0.4,12-0.8,17.9-1.2c12.5-0.9,24.9-1.8,37.3-2.7
			c12.1-0.8,24.3-1.5,36.4-2.3c11.8-0.8,23.6-1.8,35.4-2.7c12.5-0.9,24.9-1.7,37.4-2.3c18.1-0.9,36.1-4.1,54.3-1.8
			c4.1,0.5,8.3,0.7,12.4,1c10.3,0.9,20.6,1.7,30.8,2.6c8.6,0.7,17.2,1.4,26.1,2.1c0-142.2,0-284,0-426.4c-7.4,0.5-14.5,1-21.7,1.4
			c-19.1,1.1-38.2,2.1-57.4,3.3c-19.1,1.2-38.2,2.5-57.3,3.7c-20.3,1.2-40.6,2.2-60.8,3.3c-7,0.4-14,0.8-20.9,1.2
			c-13.6,0.9-27.2,1.8-40.9,2.6c-14.5,0.8-28.9,1.5-43.4,2.3c-14.8,0.8-29.6,1.8-44.4,2.6c-15,0.8-29.9,1.4-44.9,2.2
			c-5,0.3-9.9,0.8-15.2,1.2c0,139.1,0,278.2,0,417.1c0.6,0.2,0.9,0.4,1.2,0.4C62.5,602.3,78.9,601,95.3,599.9z"/>
		<path class="st0" d="M222.7,162.9c22.6-1.4,45.2-2.7,67.8-4c19.8-1.1,39.6-2.1,59.3-3.2c6.8-0.4,13.6-0.8,20.4-1.3
			c12.8-0.8,25.6-1.8,38.4-2.6c15.4-1,30.9-1.9,46.3-2.9c3.4-0.2,6.5,0.2,9.7,1.5c26,11.1,52,22,78,32.9c18.1,7.6,36.2,15,54.3,22.5
			c0.3,0.2,0.6,0.3,1.5,0.9c-0.7-0.9-0.9-1.2-1.1-1.4c-2.1-2.1-4.1-4.3-6.3-6.4c-45.3-44.9-90.6-89.8-135.9-134.8
			c-16.9-16.8-33.6-33.8-50.3-50.7C287.5,22.5,170.5,31.6,52.4,40.8c42.5,42.3,84.2,83.8,125.6,125.1
			C193.5,164.8,208.1,163.8,222.7,162.9z"/>
		<path class="st1" d="M361,995c0-133,0-266.1,0-399.7c-9.2,0.5-18.2,0.9-27.1,1.5c-16.8,1.2-33.5,2.5-50.3,3.7
			c-17.3,1.2-34.6,2.1-51.8,3.3c-22.1,1.5-44.2,3.2-66.3,4.7c-26.4,1.7-52.9,3.3-79.3,5c-21.9,1.4-43.9,2.7-65.8,4
			c-2.3,0.1-4.6,0.2-7.1,0.4c0,125.9,0,251.3,0,376.9C19.3,996,357.6,996.1,361,995z"/>
		<path class="st0" d="M464.4,589.5c54.3,5,107.7,10,161.6,15c0-124.4,0-248.5,0-372.9c-53.4-22.3-107-44.6-161.5-67.3
			C464.4,306.6,464.3,448,464.4,589.5z"/>
		<path class="st2" d="M44.9,1359.9c119.3,6,237.9,11.9,356.9,17.9c0-123.3,0-245.7,0-368.6c-119.3-0.4-238.1-0.8-356.9-1.2
			C44.9,1125.4,44.9,1242.4,44.9,1359.9z"/>
		<path class="st1" d="M374.2,996c94.1-0.5,238.8-0.4,333.2-0.9c0-124.9,0-249.3,0-374.2c-93.9-8.9-238.6-18.5-333.2-25.8
			C374.2,729.1,374.2,862.4,374.2,996z"/>
		<path class="st2" d="M415.4,1376.5c70.3-9.8,140.2-19.5,210.3-29.8c0-113.6,0-226.4,0-339.5c-70.3,0.5-140.2,1-210.3,1.6
			C415.4,1131.6,415.4,1253.8,415.4,1376.5z"/>
		<path d="M720.1,619.2c0-2.9-0.4-5.9-0.7-9.4c-10-2.6-70.8-2.7-80.6-4.5c-0.1-1.7-0.2-3.2-0.2-4.6c0-45.3,0.1-90.7,0-136
			c0-76,0-152-0.1-228c0-3.5-0.3-6.9-0.4-9.1C561,151.1,484.7,75.7,408.2,0C284,9.7,159.4,19.5,34.8,29.2c-4.7,4.4-4.8,7.3-0.6,11.8
			c0.7,0.7,1.4,1.4,2.1,2.1c40,39.7,80,79.4,119.9,119.1c1.2,1.2,2.3,2.5,4,4.3c-42.9,2.4-84.7,4.8-126.9,7.2
			c-0.6,2-1.2,3.5-1.4,5.1c-0.2,2.8-0.2,5.7-0.2,8.5c0,137,0,274,0,411c0,1.8,0,3.6,0,5.6c-1.8,0.3-3,0.7-4.3,0.8
			c-6.6,0.4-13.3,0.8-19.9,1.1c-2.8,0.1-5.3,0.5-7.3,3.4c-0.1,2-0.3,4.5-0.3,7C0,626.6,0,636.9,0,647.2c0,116,0,232,0,348
			c0,1.8,0,3.7,0.1,5.5c0.2,5.8,1.1,6.7,6.8,6.7c6.7,0,13.3,0,20,0c1.4,0,2.9,0.2,4.7,0.3c0,1.8,0,3.3,0,4.7
			c0.1,99.7,0.2,199.3,0.3,299c0,17.2,0.1,34.3,0.2,51.5c0.1,7.7,1.9,9.3,9.4,9.5c10.3,0.3,20.6,0.8,31,1.3
			c16.6,0.8,33.3,1.8,49.9,2.6c17,0.8,33.9,1.5,50.9,2.2c7.5,0.3,15,0.7,22.5,1.1c15.5,0.9,30.9,1.8,46.4,2.6
			c16.5,0.8,32.9,1.5,49.4,2.3c7.7,0.4,15.3,0.8,23,1.2c17.1,0.9,34.3,1.8,51.4,2.6c10.8,0.6,21.6,1.3,32.4,1.7
			c5.8,0.2,11.7,0.1,17.4-0.5c10.4-1.1,20.8-2.8,31.1-4.2c12.7-1.8,25.3-3.5,38-5.4c15.1-2.2,30.2-4.4,45.4-6.7
			c12.8-1.9,25.6-3.8,38.5-5.7c12.7-1.8,25.3-3.6,38-5.4c8.4-1.2,16.8-2.4,25.1-3.8c2.1-0.4,4.1-1.6,6.5-2.5
			c0-116.7,0-232.8,0-349.3c2.2-0.1,3.8-0.3,5.4-0.3c6.2,0,63.1,0.7,69.2,0.6c5.8,0,6.9-1.1,7.1-7.1c0.1-2,0.1-4,0.1-6
			c0-54-0.1-108,0-162C720,761.2,720.1,690.2,720.1,619.2z M52.4,40.8c118.2-9.2,235.2-18.3,352.6-27.4
			c16.8,16.9,33.4,33.9,50.3,50.7c45.2,45,90.6,89.9,135.9,134.8c2.1,2.1,4.2,4.3,6.3,6.4c0.2,0.2,0.4,0.5,1.1,1.4
			c-1-0.6-1.3-0.8-1.5-0.9c-18.1-7.5-36.2-14.9-54.3-22.5c-26-10.9-52.1-21.8-78-32.9c-3.2-1.4-6.3-1.8-9.7-1.5
			c-15.4,1-30.9,1.9-46.3,2.9c-12.8,0.8-25.6,1.7-38.4,2.6c-6.8,0.5-13.6,0.9-20.4,1.3c-19.8,1.1-39.6,2.1-59.3,3.2
			c-22.6,1.3-45.2,2.6-67.8,4c-14.6,0.9-29.2,1.9-44.7,3C136.6,124.6,94.8,83.1,52.4,40.8z M625.9,231.5c0,124.4,0,248.5,0,372.9
			c-53.8-5-107.3-9.9-161.6-15c0-141.5,0.1-282.9,0.1-425.2C518.9,187,572.5,209.3,625.9,231.5z M44.9,185.9
			c5.3-0.4,10.2-0.9,15.2-1.2c15-0.8,29.9-1.4,44.9-2.2c14.8-0.8,29.6-1.8,44.4-2.6c14.5-0.8,28.9-1.5,43.4-2.3
			c13.6-0.8,27.2-1.8,40.9-2.6c7-0.4,14-0.8,20.9-1.2c20.3-1.1,40.6-2.1,60.8-3.3c19.1-1.1,38.2-2.5,57.3-3.7
			c19.1-1.2,38.2-2.2,57.4-3.3c7.1-0.4,14.2-0.9,21.7-1.4c0,142.4,0,284.3,0,426.4c-9-0.7-17.5-1.4-26.1-2.1
			c-10.3-0.8-20.6-1.7-30.8-2.6c-4.1-0.3-8.3-0.5-12.4-1c-18.2-2.3-36.2,0.9-54.3,1.8c-12.5,0.6-24.9,1.4-37.4,2.3
			c-11.8,0.8-23.6,1.8-35.4,2.7c-12.1,0.8-24.3,1.5-36.4,2.3c-12.5,0.8-24.9,1.8-37.3,2.7c-6,0.4-12,0.8-17.9,1.2
			c-22.8,1.4-45.5,2.7-68.3,4.2c-16.4,1.1-32.9,2.3-49.3,3.5c-0.3,0-0.6-0.2-1.2-0.4C44.9,464.1,44.9,325,44.9,185.9z M13.2,994.8
			c0-125.7,0-251.1,0-376.9c2.6-0.1,4.8-0.2,7.1-0.4c21.9-1.3,43.9-2.7,65.8-4c26.4-1.6,52.9-3.2,79.3-5c22.1-1.5,44.2-3.2,66.3-4.7
			c17.3-1.2,34.6-2.1,51.8-3.3c16.8-1.1,33.5-2.5,50.3-3.7c8.9-0.6,17.9-1,27.1-1.5c0,133.6,0,266.7,0,399.7
			C357.6,996.1,19.3,996,13.2,994.8z M401.8,1377.8c-119-6-237.6-11.9-356.9-17.9c0-117.5,0-234.6,0-351.9
			c118.8,0.4,237.7,0.8,356.9,1.2C401.8,1132.2,401.8,1254.6,401.8,1377.8z M625.7,1346.7c-70.1,10.3-140.1,20-210.3,29.8
			c0-122.7,0-244.9,0-367.7c70.2-0.5,140.1-1,210.3-1.6C625.7,1120.3,625.7,1233.1,625.7,1346.7z M707.4,995.1
			c-94.4,0.5-239.1,0.4-333.2,0.9c0-133.6,0-267,0-401c94.6,7.3,239.4,17,333.2,25.8C707.4,745.8,707.4,870.2,707.4,995.1z"/>
	</g>
	<g class="st3">
		<path class="st4" d="M94.1,232.4c1.6,1.6,2.9,3.5,3.8,5.6c0.9,2.2,1.3,4.5,1.3,6.9c0,3.9-0.8,7.2-2.5,10.1c-1.7,2.8-4.1,5-7.2,6.5
			c-3.1,1.5-6.9,2.3-11.2,2.3H53.5c-0.9,0-1.3-0.4-1.3-1.3v-63.4c0-0.9,0.4-1.3,1.3-1.3h22.8c4.1,0,7.7,0.7,10.6,2.1
			c3,1.4,5.2,3.5,6.8,6.2c1.6,2.7,2.3,5.9,2.3,9.5c0,2.8-0.7,5.4-2.1,7.9c-1.4,2.4-3.2,4.3-5.5,5.5
			C90.6,229.7,92.5,230.8,94.1,232.4z M62.3,207v18.5h14c1.9,0,3.6-0.4,5-1.2c1.4-0.8,2.6-1.9,3.4-3.3c0.8-1.4,1.2-3,1.2-4.9
			c0-2.8-0.9-5-2.6-6.7c-1.7-1.7-4.1-2.5-7-2.5H62.3z M83.9,253.3c1.6-0.9,2.9-2.1,3.8-3.7s1.3-3.4,1.3-5.5s-0.4-3.9-1.3-5.5
			c-0.9-1.6-2.1-2.8-3.8-3.6c-1.6-0.8-3.5-1.3-5.6-1.3h-16v20.8h16C80.4,254.6,82.3,254.2,83.9,253.3z"/>
		<path class="st4" d="M155.9,262.6c0,0.4-0.1,0.7-0.4,0.9c-0.2,0.2-0.6,0.4-0.9,0.4h-8.3c-0.4,0-0.8-0.1-1.1-0.3
			c-0.3-0.2-0.6-0.6-0.9-1.1l-11-20.8h-0.8H120v20.5c0,0.5-0.1,1-0.4,1.3c-0.3,0.3-0.7,0.5-1.2,0.5h-6.8c-1.1,0-1.6-0.6-1.6-1.7
			v-62.6c0-0.5,0.2-0.9,0.5-1.2c0.3-0.3,0.7-0.5,1.2-0.5h1.8h5.3h14.1c4.4,0,8.3,0.9,11.8,2.8c3.5,1.8,6.2,4.4,8.1,7.8
			c1.9,3.3,2.9,7.2,2.9,11.5c0,4.5-1,8.4-3.1,11.8c-2.1,3.4-5,6-8.6,7.7l12.1,22.6C155.8,262.1,155.9,262.4,155.9,262.6z M120,232
			h12.6c2.4,0,4.6-0.5,6.5-1.6c1.9-1.1,3.4-2.5,4.5-4.3c1.1-1.8,1.6-3.9,1.6-6.2c0-2.4-0.5-4.5-1.6-6.4c-1.1-1.9-2.6-3.3-4.5-4.4
			c-1.9-1.1-4.1-1.6-6.5-1.6H120V232z"/>
		<path class="st4" d="M167.3,199.5c0-1.1,0.6-1.7,1.7-1.7h41.7c0.6,0,1,0.1,1.3,0.4c0.3,0.3,0.5,0.7,0.5,1.2v6.1
			c0,0.5-0.2,1-0.5,1.3c-0.3,0.3-0.8,0.5-1.3,0.5h-33.2v18.4H204c0.6,0,1.1,0.1,1.5,0.4c0.3,0.3,0.5,0.7,0.5,1.2v6.1
			c0,0.5-0.2,0.9-0.5,1.2c-0.4,0.3-0.8,0.5-1.4,0.5h-26.5v19.3h33.6c0.7,0,1.3,0.2,1.7,0.5c0.4,0.4,0.6,0.9,0.6,1.5l0,5.7
			c0,0.5-0.1,1-0.5,1.3c-0.3,0.3-0.8,0.5-1.3,0.5h-42.6c-1.1,0-1.7-0.6-1.7-1.7V199.5z"/>
		<path class="st4" d="M279.7,262.7c0,0.4-0.1,0.7-0.4,0.9c-0.3,0.2-0.6,0.3-1.1,0.3h-7.6c-0.4,0-0.8-0.1-1.2-0.4
			c-0.3-0.3-0.6-0.6-0.7-1.1l-4.9-12.9h-29.1l-4.9,12.9c-0.2,0.5-0.4,0.8-0.8,1.1c-0.4,0.3-0.8,0.4-1.2,0.4h-7.5
			c-1,0-1.4-0.4-1.4-1.1c0-0.3,0.1-0.5,0.2-0.8l25.4-62.6c0.2-0.5,0.5-0.9,0.8-1.1c0.4-0.3,0.8-0.4,1.2-0.4h5.6
			c0.5,0,0.9,0.1,1.2,0.4s0.6,0.7,0.8,1.1l25.4,62.6C279.7,262.3,279.7,262.5,279.7,262.7z M260.6,240.8l-11.2-29.6l-11.2,29.6
			H260.6z"/>
		<path class="st4" d="M346,262.8c0,0.3-0.1,0.6-0.3,0.8c-0.2,0.2-0.5,0.3-0.9,0.3h-8.9c-0.7,0-1.2-0.3-1.8-0.8l-22.4-30.2
			l-12.4,14.2v15.4c0,0.9-0.4,1.4-1.3,1.4h-7.6c-0.4,0-0.7-0.1-1-0.4c-0.2-0.2-0.3-0.6-0.3-1v-63.3c0-0.9,0.4-1.4,1.3-1.4h7.6
			c0.8,0,1.3,0.5,1.3,1.4v35.1l29.1-35.3c0.4-0.5,0.8-0.8,1.2-1c0.4-0.2,0.8-0.2,1.3-0.2h8.7c0.4,0,0.7,0.1,0.9,0.3
			c0.2,0.2,0.3,0.5,0.3,0.8c0,0.4-0.2,0.8-0.5,1.1l-22.1,25.3l27.4,36.4C345.9,262.2,346,262.5,346,262.8z"/>
		<path class="st4" d="M385.9,262.5c0,0.9-0.4,1.4-1.3,1.4H377c-0.4,0-0.7-0.1-0.9-0.4c-0.2-0.2-0.3-0.6-0.3-1v-63.3
			c0-0.9,0.4-1.4,1.3-1.4h7.6c0.8,0,1.3,0.5,1.3,1.4V262.5z"/>
		<path class="st4" d="M395.2,199.5c0-0.5,0.2-1,0.5-1.2c0.3-0.3,0.7-0.4,1.3-0.4h43.1c0.5,0,0.9,0.2,1.2,0.5
			c0.3,0.3,0.5,0.7,0.5,1.2v6.5c0,0.5-0.2,1-0.5,1.3c-0.3,0.3-0.7,0.5-1.2,0.5h-16.4v54.7c0,0.6-0.2,1-0.5,1.3
			c-0.3,0.3-0.7,0.4-1.3,0.4h-6.8c-0.5,0-1-0.1-1.3-0.4c-0.3-0.3-0.5-0.7-0.5-1.3v-54.7h-16.5c-0.5,0-0.9-0.2-1.2-0.5
			c-0.3-0.3-0.5-0.7-0.5-1.3V199.5z"/>
	</g>
</g>
<g id="Layer_2">
	<g>
		<path class="st5" d="M145.6,280.8v222.7c0,5.5-2.6,11.9-10.1,14.5c7.5,1.5,10.1,6.8,10.1,12.3v5.7c0,8.4-7.2,14.3-18.6,15
			l-18.7,1.3V269.3l18.7-1.1C138.4,267.4,145.6,272.4,145.6,280.8z M126.9,276.3l-7.7,0.5v238.2l7.7-0.5c4.7-0.3,7.7-4.3,7.7-9.4
			V281.5C134.6,278,131.7,276,126.9,276.3z M126.9,522.6l-7.7,0.5v20.3l7.7-0.5c4.7-0.3,7.7-2.7,7.7-6.2v-8.1
			C134.6,525,131.7,522.2,126.9,522.6z"/>
		<path class="st5" d="M189.4,278.1v229.7c0,6.2-3.9,11-10.5,13.4l10.5,25.5l-11.6,0.8l-9.2-24.5l-5.5,0.4v25.1l-11,0.7V266.6
			l18.6-1.1C182.2,264.8,189.4,269.7,189.4,278.1z M170.8,273.6l-7.7,0.5v241.2l7.7-0.5c4.7-0.3,7.7-2.7,7.7-6.2V278.8
			C178.5,275.3,175.5,273.3,170.8,273.6z"/>
		<path class="st5" d="M227.7,262v8.1l-20.8,1.3v237.7l15.3-1v8.1l-15.3,1v20.3l20.8-1.4v8.1l-31.7,2.1V263.9L227.7,262z"/>
		<path class="st5" d="M239.9,261.3l15.5-0.9l11.1,281.3l-10.9,0.7l-1.7-11.2l-12.5,0.8l-1.7,11.5l-10.9,0.7L239.9,261.3z
			 M252.7,523.1l-5-250.1l-5,250.7L252.7,523.1z"/>
		<path class="st5" d="M281.8,258.7v246.8l14-247.6l12-0.7l-16.4,250.4l16.4,31.3l-12,0.8l-14-28.8v29.7l-10.9,0.7V259.4
			L281.8,258.7z"/>
		<path class="st5" d="M347,254.7v281.4l-10.9,0.7V255.4L347,254.7z"/>
		<path class="st5" d="M388.3,260.3l-12,0.7v273.2l-10.9,0.7V261.7l-12,0.7v-8.1l34.8-2.1V260.3z"/>
	</g>
	<g>
		<path class="st5" d="M426.5,646.8l8.2,280l8.1-279l19.8,1.2v296.6h-11.3V669.8l-8.7,275.7h-15.8L417.9,668v277.6h-12.8v-300
			L426.5,646.8z"/>
		<path class="st5" d="M480.6,650l17.9,1.1l12.8,294.4h-12.6l-2-15.2l-14.4,0l-2,15.3h-12.7L480.6,650z M495.4,919.4L489.6,667
			l-5.8,252.3L495.4,919.4z"/>
		<path class="st5" d="M528.9,652.9v245.8l15.9-244.9l13.6,0.8l-18.5,247.7l18.5,43.1h-13.6l-15.9-39.7v39.7h-12.5V652.2
			L528.9,652.9z"/>
		<path class="st5" d="M597.3,657v10.7l-23.1-1.3v231l17,0.2v10.7l-17-0.1v26.8l23.1,0.1v10.7H562V654.9L597.3,657z"/>
		<path class="st5" d="M640.4,659.6v285.9h-11.9V658.9L640.4,659.6z"/>
		<path class="st5" d="M685.1,672.7l-12.9-0.7v273.5h-11.7V671.3l-13-0.7V660l37.6,2.2V672.7z"/>
	</g>
	<g>
		<path class="st5" d="M124.6,1042.9v7.1l-24.3,0v251.4l17.9,0.7v7.1l-17.9-0.8v22.7l-12.7-0.6v-287.6H124.6z"/>
		<path class="st5" d="M145.2,1042.9v283.2l17.3,0.8v7.1l-30.2-1.4v-289.7H145.2z"/>
		<path class="st5" d="M189.9,1336.1c-13.6-0.6-22.2-5.8-22.2-13.2v-279.9h13v280.5c0,3.1,3.5,5.2,9.2,5.4c5.6,0.3,9.2-1.5,9.2-4.6
			v-281.3h13.2v281.9C212.3,1332.4,203.6,1336.7,189.9,1336.1z"/>
		<path class="st5" d="M232.1,1308.4l-14.6-265.5h13.9l10,259.8l10-259.8h14.1l-14.7,266.2l14.7,29.7l-14.1-0.7l-10-23.3l-10,22.4
			l-13.9-0.6L232.1,1308.4z"/>
		<path class="st5" d="M315.5,1042.9v298.3l-13.6-0.6v-297.6H315.5z"/>
		<path class="st5" d="M367.7,1050.3l-15.2,0v292.6l-13.8-0.6v-292l-15.1,0v-7.3h44V1050.3z"/>
	</g>
</g>
</svg>
