<?xml version="1.0" encoding="utf-8"?>
<!-- Generator: Adobe Illustrator 26.5.0, SVG Export Plug-In . SVG Version: 6.00 Build 0)  -->
<svg version="1.1" id="Layer_1" xmlns="http://www.w3.org/2000/svg" xmlns:xlink="http://www.w3.org/1999/xlink" x="0px" y="0px"
	 viewBox="0 0 1705.4987 693.8777" style="enable-background:new 0 0 1705.4987 693.8777;" xml:space="preserve">
<style type="text/css">
	.st0{fill:#FFFADC;}
</style>
<g>
	<g>
		<g>
			<g>
				<g>
					<path class="st0" d="M1087.5598,573.795v-0.2751c0-28.177,21.6844-50.274,50.9646-50.274
						c19.7504-0.0001,32.4579,8.2864,41.0193,20.1657l-20.163,15.6072c-5.527-6.9081-11.8766-11.3264-21.1313-11.3264
						c-13.5355,0-23.0654,11.464-23.0654,25.5525v0.2751c0,14.5012,9.5299,25.8276,23.0654,25.8276
						c10.0801,0,16.0226-4.6962,21.8219-11.7391l20.1658,14.3636c-9.1172,12.5671-21.4093,21.822-42.8185,21.822
						C1109.7972,623.7939,1087.5598,602.6625,1087.5598,573.795z"/>
					<path class="st0" d="M1190.1824,547.1393h26.243v15.0541c4.2806-10.2204,11.186-16.8506,23.6156-16.2977v27.6241h-2.2091
						c-13.6731,0-21.4065,7.871-21.4065,25.137v23.203h-26.243V547.1393z"/>
					<path class="st0" d="M1244.8776,584.8462v-0.2778c0-21.822,15.6044-39.0853,37.7041-39.0853
						c25.8276-0.0001,37.7042,18.9194,37.7042,40.8817c0,1.6562,0,3.5902-0.1376,5.3867h-49.9989
						c2.0743,8.1488,8.0112,12.292,16.16,12.292c6.2175,0,11.1888-2.3494,16.5729-7.5958l14.5039,12.0142
						c-7.1804,9.1172-17.5411,15.1945-32.4578,15.1945C1261.4503,623.6563,1244.8776,608.0492,1244.8776,584.8462z
						 M1295.7018,578.3535c-0.9684-8.2864-5.7993-13.5355-12.9825-13.5355c-6.9053,0-11.6014,5.3867-12.9825,13.5355H1295.7018z"/>
					<path class="st0" d="M1327.7469,600.4533v-0.2779c0-15.4695,11.739-23.4781,29.2803-23.4781
						c6.9053,0,13.6731,1.381,17.9565,2.8997v-1.2435c0-7.7335-4.8364-12.1545-14.9166-12.1545
						c-7.8737,0-13.9509,1.5186-20.5812,4.1432l-5.3867-18.5068c8.4268-3.4526,17.4037-5.8021,30.2487-5.8021
						c13.3979,0,22.5125,3.1776,28.4521,9.1172c5.6619,5.5242,8.0114,13.2576,8.0114,23.7559v42.9534h-25.9679v-7.7334
						c-5.1089,5.6618-12.1517,9.3896-21.9595,9.3896C1338.658,623.516,1327.7469,615.3672,1327.7469,600.4533z M1375.2589,594.7887
						v-3.4526c-2.6246-1.106-6.3551-1.934-10.2231-1.934c-7.5931,0-12.0142,3.7305-12.0142,9.2548v0.2751
						c0,5.1116,3.8652,8.1488,9.252,8.1488C1369.8722,607.0807,1375.2589,602.247,1375.2589,594.7887z"/>
					<path class="st0" d="M1418.0774,598.6568v-30.3862h-8.842v-21.1314h8.842V528.217l26.2402-0.0001v18.9223l17.4037-0.0001
						v21.1314h-17.4037v25.2746c0,5.2491,2.3495,7.4583,7.1805,7.4583c3.4553,0,6.7677-0.9656,9.948-2.4843v20.5784
						c-4.6989,2.6246-10.9109,4.2808-18.2344,4.2808C1427.4697,623.3784,1418.0774,616.4731,1418.0774,598.6568z"/>
					<path class="st0" d="M1473.6007,547.1392h26.2402v74.7206l-26.2402,0.0001V547.1392z M1473.0476,521.0365h27.3462
						l0.0001,19.3349h-27.3462L1473.0476,521.0365z"/>
					<path class="st0" d="M1508.8206,547.1392h27.6213l14.3663,43.6439l14.361-43.6439h27.2086l-29.8333,75.2736h-23.8907
						L1508.8206,547.1392z"/>
					<path class="st0" d="M1593.3462,584.8461v-0.2778c0-21.822,15.6099-39.0853,37.7069-39.0853
						c25.8276,0,37.7069,18.9195,37.7069,40.8817c0,1.6562,0,3.5902-0.1403,5.3867h-49.9962
						c2.0688,8.1488,8.0112,12.2921,16.1602,12.2921c6.212-0.0001,11.186-2.3495,16.5728-7.5959l14.5012,12.0142
						c-7.1832,9.1172-17.5413,15.1945-32.4551,15.1945C1609.9218,623.6562,1593.3462,608.0491,1593.3462,584.8461z
						 M1644.1732,578.3534c-0.9656-8.2864-5.8021-13.5355-12.9825-13.5355c-6.9053,0-11.6014,5.3867-12.9825,13.5355H1644.1732z"/>
					<path class="st0" d="M1678.1525,594.9262l27.3462-0.0001v26.9335h-27.3462V594.9262z"/>
				</g>
				<g>
					<path class="st0" d="M1106.1146,654.7023c1.3354,0.3995,2.4829,0.9575,3.4385,1.6742
						c0.9556,0.7186,1.6879,1.5959,2.1969,2.6317c0.5092,1.0378,0.7637,2.195,0.7637,3.4697c0,1.1181-0.1527,2.0893-0.4542,2.9196
						c-0.3015,0.8302-0.7089,1.5626-1.2179,2.2009c-0.5092,0.6384-1.0731,1.1729-1.6919,1.6037
						c-0.6227,0.4308-1.2649,0.7891-1.9346,1.077c0.9869,0.2859,1.9189,0.6619,2.7961,1.124
						c0.8733,0.4641,1.6292,1.0143,2.2675,1.6507c0.6384,0.6383,1.1475,1.4039,1.5273,2.2968
						c0.3838,0.8948,0.5757,1.915,0.5757,3.0645c0,1.4353-0.2898,2.7276-0.8616,3.8751c-0.5718,1.1494-1.3942,2.1147-2.4594,2.8961
						c-1.0652,0.7812-2.3497,1.3804-3.8457,1.7936c-1.496,0.4152-3.1526,0.6227-4.9696,0.6227h-14.8542v-33.4992h14.2316
						C1103.2793,654.1031,1104.7753,654.3029,1106.1146,654.7023z M1106.5846,667.4966c1.4333-1.0241,2.15-2.5298,2.15-4.5173
						c0-1.6977-0.6384-3.0429-1.9111-4.0356c-1.2728-0.9927-3.1017-1.4901-5.4866-1.4901h-10.1665v11.5802h9.8806
						C1103.3107,669.0337,1105.1552,668.5226,1106.5846,667.4966z M1108.4056,682.668c1.4607-1.0574,2.193-2.5475,2.193-4.4703
						c0-1.8563-0.7479-3.2896-2.2439-4.3c-1.4921-1.0084-3.7047-1.5136-6.634-1.5136h-10.5503v11.868h11.22
						C1104.9359,684.2521,1106.9409,683.7253,1108.4056,682.668z"/>
					<path class="st0" d="M1126.2008,687.6024h-3.6851v-24.7406h3.6851v6.4598c0.4465-1.0201,1.0026-1.962,1.6761-2.8235
						c0.6697-0.8616,1.4333-1.6037,2.2949-2.2244c0.8616-0.6227,1.8015-1.0927,2.8236-1.4118s2.1226-0.4621,3.3014-0.4308v3.9711
						h-0.2859c-1.3394,0-2.6083,0.2388-3.8066,0.7186c-1.1945,0.4778-2.24,1.1964-3.1329,2.1539
						c-0.8929,0.9556-1.5939,2.1461-2.1069,3.5638c-0.509,1.4216-0.7637,3.0566-0.7637,4.905V687.6024z"/>
					<path class="st0" d="M1145.2493,680.1616c0.5092,1.0358,1.1631,1.913,1.962,2.6317c0.7949,0.7167,1.6879,1.261,2.6787,1.6272
						c0.9868,0.3661,2.0247,0.5502,3.1094,0.5502c1.7231,0,3.1996-0.3192,4.4293-0.9575c1.2257-0.6384,2.3496-1.4843,3.3718-2.5358
						l2.2988,2.058c-1.2454,1.4039-2.667,2.5279-4.2609,3.3738c-1.5939,0.8439-3.5715,1.2668-5.9331,1.2668
						c-1.6918,0-3.2856-0.3113-4.7855-0.9321c-1.5-0.6226-2.8119-1.4999-3.9358-2.6317c-1.124-1.1337-2.0168-2.4966-2.6787-4.0925
						c-0.6658-1.5958-0.9948-3.3503-0.9948-5.2634c0-1.7877,0.2937-3.4697,0.8851-5.0499c0.5913-1.5782,1.4098-2.9509,2.4633-4.1159
						c1.0535-1.1631,2.3066-2.0815,3.7595-2.7512c1.449-0.6697,3.035-1.0045,4.7582-1.0045c1.821,0,3.4463,0.3427,4.8835,1.028
						c1.4333,0.6873,2.6473,1.6193,3.6382,2.8001c0.9868,1.1807,1.7349,2.569,2.2479,4.1629
						c0.509,1.5958,0.7635,3.3033,0.7635,5.1204c0,0.1606,0,0.3348,0,0.5267s-0.0156,0.3995-0.047,0.6227h-19.5731
						C1144.4191,677.9352,1144.7362,679.1238,1145.2493,680.1616z M1160.1309,673.8682c-0.094-1.1161-0.3251-2.1852-0.6893-3.2073
						c-0.3641-1.0202-0.8733-1.9131-1.5233-2.6787c-0.6501-0.7656-1.4412-1.3804-2.3772-1.8425
						c-0.9359-0.4622-2.0208-0.6951-3.2583-0.6951c-1.0808,0-2.0795,0.2154-2.9998,0.6462
						c-0.9164,0.4308-1.7271,1.0221-2.4242,1.772c-0.697,0.75-1.2688,1.635-1.7113,2.6552
						c-0.4464,1.0222-0.7284,2.1382-0.8577,3.3503H1160.1309z"/>
					<path class="st0" d="M1176.5201,666.2826c-1.1984,0.3348-2.3693,0.7734-3.5167,1.3158l-1.1044-3.0135
						c1.3745-0.6384,2.7609-1.1416,4.1669-1.5078c1.402-0.3661,3.0115-0.5502,4.8325-0.5502c3.3798,0,5.9801,0.8361,7.8011,2.5123
						c1.817,1.6742,2.7256,4.1551,2.7256,7.4408v15.1224h-3.5402v-3.7321c-0.8616,1.1161-2.0168,2.105-3.4698,2.9665
						c-1.4529,0.8616-3.2778,1.2924-5.4788,1.2924c-1.1514,0-2.2753-0.1605-3.3757-0.4797
						c-1.1005-0.3172-2.0873-0.8047-2.9646-1.4587c-0.8811-0.6541-1.5822-1.4588-2.1069-2.4163
						c-0.5247-0.9575-0.791-2.0893-0.791-3.3973c0-1.308,0.2545-2.4652,0.7676-3.4697c0.5092-1.0065,1.2336-1.8426,2.1774-2.5123
						c0.9399-0.6716,2.056-1.1807,3.3484-1.5312c1.2924-0.3525,2.7218-0.5267,4.2843-0.5267c1.5939,0,2.9841,0.0959,4.163,0.2859
						c1.1787,0.1919,2.3301,0.4484,3.4463,0.7656v-0.8615c0-2.2322-0.6462-3.9142-1.9386-5.048
						c-1.2924-1.1318-3.1016-1.6976-5.4318-1.6976C1179.0461,665.7813,1177.7146,665.9478,1176.5201,666.2826z M1175.3413,676.4529
						c-1.2413,0.9243-1.8601,2.1852-1.8601,3.7791c0,0.799,0.1644,1.4999,0.5012,2.1069c0.3329,0.605,0.7833,1.124,1.3589,1.5547
						c0.5718,0.4308,1.2297,0.7578,1.9778,0.981c0.7479,0.2232,1.5352,0.3348,2.3615,0.3348c1.1436,0,2.2166-0.1684,3.2191-0.5032
						s1.8759-0.7969,2.6238-1.3864c0.748-0.5914,1.3354-1.2924,1.7662-2.1069c0.4269-0.8126,0.6423-1.7133,0.6423-2.7041v-2.3928
						c-0.9243-0.2546-1.9817-0.4934-3.1721-0.7167c-1.1906-0.2232-2.5535-0.3348-4.0768-0.3348
						C1178.3607,675.0646,1176.5789,675.5268,1175.3413,676.4529z"/>
					<path class="st0" d="M1222.4376,687.6024h-4.4019l-8.8545-11.5332l-5.0245,5.0734v6.4598h-3.6851v-34.9344h3.6851v24.1199
						l13.3503-13.926h4.5938l-10.3818,10.6227L1222.4376,687.6024z"/>
					<path class="st0" d="M1249.1892,654.1031v33.4992h-3.7831v-33.4992H1249.1892z"/>
					<path class="st0" d="M1264.5486,680.5669c0,1.5312,0.3838,2.6024,1.1475,3.2074c0.7676,0.607,1.7701,0.9086,3.0155,0.9086
						c0.6383,0,1.2374-0.0627,1.7936-0.1919c0.5601-0.1253,1.1553-0.3505,1.7936-0.6697v3.1584
						c-0.6383,0.3525-1.3158,0.6149-2.0325,0.7911c-0.7167,0.1743-1.5234,0.2624-2.4163,0.2624
						c-0.9908,0-1.915-0.1273-2.7766-0.3838c-0.8616-0.2545-1.6018-0.6618-2.2244-1.2198
						c-0.6227-0.5581-1.1084-1.2826-1.4608-2.1774c-0.3485-0.8929-0.5248-1.962-0.5248-3.2054v-14.9305h-3.4463v-3.2544h3.4463
						v-7.4662h3.6852v7.4662h7.848v3.2544h-7.848V680.5669z"/>
					<path class="st0" d="M1280.7695,690.1146c0.509-0.654,0.7167-1.4921,0.6227-2.5123h-1.7231v-5.0245h4.4017v4.3058
						c0,1.9464-0.4308,3.4228-1.2924,4.4273c-0.8615,1.0045-2.2008,1.7153-4.0179,2.1304l-0.5757-1.6761
						C1279.3988,691.3188,1280.2604,690.7686,1280.7695,690.1146z"/>
					<path class="st0" d="M1325.2771,678.415h-0.1919l-12.2029-17.899v27.0864h-3.6851v-33.4992h3.826l12.2029,18.2809
						l12.2029-18.2809h3.8301v33.4992h-3.7792v-27.1334L1325.2771,678.415z"/>
					<path class="st0" d="M1356.2622,666.2826c-1.1984,0.3348-2.3694,0.7734-3.5168,1.3158l-1.1044-3.0135
						c1.3746-0.6384,2.761-1.1416,4.1669-1.5078c1.402-0.3661,3.0116-0.5502,4.8326-0.5502c3.3796,0,5.98,0.8361,7.801,2.5123
						c1.8171,1.6742,2.7257,4.1551,2.7257,7.4408v15.1224h-3.5403v-3.7321c-0.8616,1.1161-2.0168,2.105-3.4697,2.9665
						c-1.4529,0.8616-3.2778,1.2924-5.4788,1.2924c-1.1514,0-2.2754-0.1605-3.3757-0.4797
						c-1.1005-0.3172-2.0874-0.8047-2.9646-1.4587c-0.8812-0.6541-1.5822-1.4588-2.1069-2.4163s-0.7911-2.0893-0.7911-3.3973
						c0-1.308,0.2546-2.4652,0.7676-3.4697c0.5092-1.0065,1.2336-1.8426,2.1775-2.5123c0.9398-0.6716,2.056-1.1807,3.3484-1.5312
						c1.2922-0.3525,2.7217-0.5267,4.2843-0.5267c1.5939,0,2.9841,0.0959,4.1628,0.2859c1.1788,0.1919,2.3302,0.4484,3.4463,0.7656
						v-0.8615c0-2.2322-0.6461-3.9142-1.9385-5.048c-1.2924-1.1318-3.1017-1.6976-5.4318-1.6976
						C1358.7881,665.7813,1357.4565,665.9478,1356.2622,666.2826z M1355.0834,676.4529c-1.2415,0.9243-1.8602,2.1852-1.8602,3.7791
						c0,0.799,0.1646,1.4999,0.5013,2.1069c0.3329,0.605,0.7832,1.124,1.3589,1.5547c0.5718,0.4308,1.2297,0.7578,1.9777,0.981
						c0.748,0.2232,1.5352,0.3348,2.3615,0.3348c1.1436,0,2.2166-0.1684,3.2191-0.5032s1.8759-0.7969,2.6239-1.3864
						c0.748-0.5914,1.3354-1.2924,1.7662-2.1069c0.4269-0.8126,0.6422-1.7133,0.6422-2.7041v-2.3928
						c-0.9242-0.2546-1.9816-0.4934-3.1721-0.7167c-1.1906-0.2232-2.5533-0.3348-4.0768-0.3348
						C1358.1028,675.0646,1356.3209,675.5268,1355.0834,676.4529z"/>
					<path class="st0" d="M1402.1797,687.6024h-4.4019l-8.8545-11.5332l-5.0245,5.0734v6.4598h-3.6852v-34.9344h3.6852v24.1199
						l13.3503-13.926h4.5938l-10.382,10.6227L1402.1797,687.6024z"/>
					<path class="st0" d="M1410.6504,680.1616c0.5092,1.0358,1.1631,1.913,1.962,2.6317c0.7949,0.7167,1.6879,1.261,2.6787,1.6272
						c0.9868,0.3661,2.0247,0.5502,3.1094,0.5502c1.7231,0,3.1996-0.3192,4.4293-0.9575c1.2257-0.6384,2.3496-1.4843,3.3718-2.5358
						l2.2988,2.058c-1.2454,1.4039-2.667,2.5279-4.2609,3.3738c-1.5939,0.8439-3.5715,1.2668-5.9331,1.2668
						c-1.6918,0-3.2856-0.3113-4.7855-0.9321c-1.5-0.6226-2.8119-1.4999-3.9358-2.6317c-1.124-1.1337-2.0168-2.4966-2.6787-4.0925
						c-0.6658-1.5958-0.9948-3.3503-0.9948-5.2634c0-1.7877,0.2937-3.4697,0.8851-5.0499c0.5913-1.5782,1.4098-2.9509,2.4633-4.1159
						c1.0535-1.1631,2.3066-2.0815,3.7595-2.7512c1.449-0.6697,3.035-1.0045,4.7582-1.0045c1.821,0,3.4463,0.3427,4.8835,1.028
						c1.4333,0.6873,2.6473,1.6193,3.6382,2.8001c0.9868,1.1807,1.7349,2.569,2.2479,4.1629
						c0.509,1.5958,0.7635,3.3033,0.7635,5.1204c0,0.1606,0,0.3348,0,0.5267s-0.0156,0.3995-0.0469,0.6227h-19.5732
						C1409.8202,677.9352,1410.1373,679.1238,1410.6504,680.1616z M1425.532,673.8682c-0.094-1.1161-0.3251-2.1852-0.6893-3.2073
						c-0.3641-1.0202-0.8733-1.9131-1.5233-2.6787c-0.6501-0.7656-1.4412-1.3804-2.3772-1.8425
						c-0.9359-0.4622-2.0208-0.6951-3.2583-0.6951c-1.0808,0-2.0795,0.2154-2.9998,0.6462
						c-0.9164,0.4308-1.7271,1.0221-2.4242,1.772c-0.697,0.75-1.2688,1.635-1.7113,2.6552
						c-0.4464,1.0222-0.7284,2.1382-0.8577,3.3503H1425.532z"/>
					<path class="st0" d="M1457.261,654.1031v33.4992h-3.783v-33.4992H1457.261z"/>
					<path class="st0" d="M1472.6204,680.5669c0,1.5312,0.3838,2.6024,1.1475,3.2074c0.7676,0.607,1.7701,0.9086,3.0155,0.9086
						c0.6383,0,1.2375-0.0627,1.7936-0.1919c0.5601-0.1253,1.1553-0.3505,1.7937-0.6697v3.1584
						c-0.6384,0.3525-1.3159,0.6149-2.0326,0.7911c-0.7167,0.1743-1.5233,0.2624-2.4163,0.2624
						c-0.9908,0-1.915-0.1273-2.7766-0.3838c-0.8616-0.2545-1.6017-0.6618-2.2244-1.2198
						c-0.6227-0.5581-1.1083-1.2826-1.4608-2.1774c-0.3485-0.8929-0.5247-1.962-0.5247-3.2054v-14.9305h-3.4463v-3.2544h3.4463
						v-7.4662h3.6851v7.4662h7.8481v3.2544h-7.8481V680.5669z"/>
					<path class="st0" d="M1488.8413,690.1146c0.5092-0.654,0.7167-1.4921,0.6227-2.5123h-1.7231v-5.0245h4.4019v4.3058
						c0,1.9464-0.4308,3.4228-1.2924,4.4273s-2.2009,1.7153-4.0181,2.1304l-0.5757-1.6761
						C1487.4706,691.3188,1488.3322,690.7686,1488.8413,690.1146z"/>
					<path class="st0" d="M1541.338,657.5964h-20.2898v11.964h18.1359v3.4463h-18.1359v14.5956h-3.7792v-33.4992h24.069V657.5964z"
						/>
					<path class="st0" d="M1549.5659,687.6024v-34.9344h3.6852v34.9344H1549.5659z"/>
					<path class="st0" d="M1580.5823,662.8618h3.6343v24.7406h-3.6343v-4.3078c-0.8302,1.3413-1.915,2.4809-3.2544,3.4228
						c-1.3433,0.9399-3.082,1.4117-5.2163,1.4117c-1.4999,0-2.8314-0.2389-3.9984-0.7186
						c-1.1632-0.4778-2.1539-1.1553-2.9646-2.0325c-0.8146-0.8773-1.4373-1.9229-1.868-3.1349
						c-0.4308-1.212-0.6462-2.5533-0.6462-4.02v-15.3613h3.6852v14.4508c0,2.2988,0.5914,4.1159,1.7701,5.4572
						c1.1827,1.3394,2.8706,2.009,5.0754,2.009c1.0496,0,2.0325-0.1821,2.941-0.5502c0.9086-0.3661,1.6918-0.8929,2.3458-1.5802
						c0.6539-0.6853,1.1709-1.5058,1.5547-2.4633c0.3838-0.9575,0.5757-2.011,0.5757-3.1584V662.8618z"/>
					<path class="st0" d="M1615.1781,687.6024h-4.2609l-7.6562-10.0979l-7.707,10.0979h-4.1121l9.7123-12.5867l-9.3324-12.1539
						h4.2139l7.3193,9.5712l7.3234-9.5712h4.116l-9.3794,12.058L1615.1781,687.6024z"/>
					<path class="st0" d="M1642.6462,654.1031v33.4992h-3.783v-33.4992H1642.6462z"/>
					<path class="st0" d="M1658.0095,680.5669c0,1.5312,0.3838,2.6024,1.1475,3.2074c0.7676,0.607,1.7701,0.9086,3.0155,0.9086
						c0.6383,0,1.2375-0.0627,1.7936-0.1919c0.5601-0.1253,1.1553-0.3505,1.7937-0.6697v3.1584
						c-0.6384,0.3525-1.3159,0.6149-2.0326,0.7911c-0.7167,0.1743-1.5233,0.2624-2.4163,0.2624
						c-0.9908,0-1.915-0.1273-2.7766-0.3838c-0.8616-0.2545-1.6017-0.6618-2.2244-1.2198
						c-0.6227-0.5581-1.1083-1.2826-1.4607-2.1774c-0.3486-0.8929-0.5248-1.962-0.5248-3.2054v-14.9305h-3.4463v-3.2544h3.4463
						v-7.4662h3.6851v7.4662h7.8481v3.2544h-7.8481V680.5669z"/>
				</g>
			</g>
			<g>
				<g>
					<path class="st0" d="M1084.0426,1.7614c-133.5807,0-241.8704,108.2887-241.8704,241.8698v449.9313h159.6529V243.6294
						c0-45.4061,36.8099-82.2148,82.2151-82.2148h294.6396V1.7614H1084.0426z"/>
					<path class="st0" d="M87.365,499.9961c-45.3419,4.5284-82.0146,41.1964-86.5515,86.5368
						c-6.1281,61.2518,45.1461,112.5328,106.3993,106.4114c45.3407-4.5311,82.0134-41.202,86.5456-86.5436
						C199.8808,545.153,148.6113,493.8788,87.365,499.9961z"/>
					<path class="st0" d="M1174.4297,251.1884c-45.3407,4.5334-82.011,41.2057-86.5409,86.5471
						c-6.1211,61.2471,45.1497,112.5198,106.397,106.4005c45.3419-4.5301,82.0157-41.1993,86.5515-86.5406
						C1286.9631,296.3439,1235.683,245.0644,1174.4297,251.1884z"/>
					<path class="st0" d="M667.4346,0.497c-45.3419,4.531-82.0134,41.2022-86.5456,86.5436
						c-6.1223,61.248,45.1461,112.5219,106.3934,106.4049c45.3408-4.5287,82.0146-41.1967,86.5515-86.5371
						C779.9621,45.6568,728.6879-5.6241,667.4346,0.497z"/>
				</g>
				<path class="st0" d="M597.5347,278.8771v217.5868c0,20.8548-16.9061,37.7609-37.7609,37.7609h-60.0422
					c-18.4376,0-35.5443-9.6024-45.1469-25.3419l-108.611-178.0227c-58.4999-95.8838-164.612-155.4467-276.9319-155.4467H0v159.653
					h69.0418c57.0412,0,110.9327,30.2502,140.6388,78.9441l122.5898,200.9297c29.7096,48.6909,83.5988,78.9376,140.6353,78.9376
					h119.5339c90.9878,0,164.748-73.7602,164.748-164.748V278.8771H597.5347z"/>
			</g>
		</g>
	</g>
</g>
<g>
</g>
<g>
</g>
<g>
</g>
<g>
</g>
<g>
</g>
<g>
</g>
<g>
</g>
<g>
</g>
<g>
</g>
<g>
</g>
<g>
</g>
</svg>
