<?xml version="1.0" encoding="utf-8"?>
<!-- Generator: Adobe Illustrator 26.5.0, SVG Export Plug-In . SVG Version: 6.00 Build 0)  -->
<svg version="1.1" id="Layer_1" xmlns="http://www.w3.org/2000/svg" xmlns:xlink="http://www.w3.org/1999/xlink" x="0px" y="0px"
	 viewBox="0 0 2092.9 1080" style="enable-background:new 0 0 2092.9 1080;" xml:space="preserve">
<style type="text/css">
	.st0{fill:url(#SVGID_1_);}
	.st1{fill:url(#SVGID_00000013150745440688138150000016714383116949765523_);}
	.st2{fill:url(#SVGID_00000124875559727923872140000012915962253243080086_);}
	.st3{fill:url(#SVGID_00000010300744745181710820000009085571211980722588_);}
	.st4{fill:url(#SVGID_00000002385556633186708360000010801281135658051261_);}
	.st5{fill:#FFFADC;}
</style>
<g>
	<g>
		<g>
			<linearGradient id="SVGID_1_" gradientUnits="userSpaceOnUse" x1="1029.7778" y1="382.2899" x2="1424.7705" y2="610.339">
				<stop  offset="0" style="stop-color:#35EA77"/>
				<stop  offset="0.5" style="stop-color:#FFC101"/>
				<stop  offset="1" style="stop-color:#FF0057"/>
			</linearGradient>
			<path class="st0" d="M1195.6,886.7h-159.7V436.7c0-133.6,108.3-241.9,241.9-241.9h294.7v159.7h-294.7
				c-45.4,0-82.2,36.8-82.2,82.2V886.7z"/>
		</g>
		<g>
			
				<linearGradient id="SVGID_00000050622142377388725280000009425445020667767221_" gradientUnits="userSpaceOnUse" x1="206.7869" y1="741.1248" x2="374.7261" y2="838.0846">
				<stop  offset="0" style="stop-color:#FF5554"/>
				<stop  offset="1" style="stop-color:#5C32AE"/>
			</linearGradient>
			<path style="fill:url(#SVGID_00000050622142377388725280000009425445020667767221_);" d="M300.7,886.1
				c-61.3,6.1-112.6-45.2-106.4-106.4c4.5-45.4,41.2-82,86.6-86.6c61.3-6.1,112.5,45.2,106.4,106.4
				C382.7,844.9,346,881.6,300.7,886.1z"/>
		</g>
		<g>
			
				<linearGradient id="SVGID_00000008856849275566863400000015598092001068107416_" gradientUnits="userSpaceOnUse" x1="1294.1798" y1="492.2432" x2="1462.1208" y2="589.204">
				<stop  offset="0" style="stop-color:#FFC101"/>
				<stop  offset="1" style="stop-color:#FF0057"/>
			</linearGradient>
			<path style="fill:url(#SVGID_00000008856849275566863400000015598092001068107416_);" d="M1388.1,637.2
				c-61.3,6.1-112.6-45.2-106.4-106.4c4.5-45.4,41.2-82,86.6-86.6c61.3-6.1,112.6,45.2,106.4,106.4
				C1470.1,596,1433.4,632.7,1388.1,637.2z"/>
		</g>
		<g>
			
				<linearGradient id="SVGID_00000052090532596580292330000011466577575267371398_" gradientUnits="userSpaceOnUse" x1="787.0317" y1="241.4791" x2="954.9709" y2="338.4388">
				<stop  offset="0" style="stop-color:#35EA77"/>
				<stop  offset="1" style="stop-color:#4A29FE"/>
			</linearGradient>
			<path style="fill:url(#SVGID_00000052090532596580292330000011466577575267371398_);" d="M880.9,386.5
				c-61.3,6.1-112.5-45.2-106.4-106.4c4.5-45.4,41.2-82,86.6-86.6c61.3-6.1,112.6,45.2,106.4,106.4
				C963,345.3,926.3,381.9,880.9,386.5z"/>
		</g>
		
			<linearGradient id="SVGID_00000182517027691949821250000001308694826060390828_" gradientUnits="userSpaceOnUse" x1="207.0748" y1="344.812" x2="947.4841" y2="772.2875">
			<stop  offset="0" style="stop-color:#FF5554"/>
			<stop  offset="0.5" style="stop-color:#5C32AE"/>
			<stop  offset="1" style="stop-color:#35EA77"/>
		</linearGradient>
		<path style="fill:url(#SVGID_00000182517027691949821250000001308694826060390828_);" d="M791.2,471.9v217.7
			c0,20.9-16.9,37.8-37.8,37.8h-60.1c-18.4,0-35.6-9.6-45.2-25.3L539.5,523.9C481,428,374.9,368.4,262.5,368.4h-69.1v159.7h69.1
			c57.1,0,111,30.3,140.7,79l122.6,201c29.7,48.7,83.6,79,140.7,79h119.6c91,0,164.8-73.8,164.8-164.8V471.9H791.2z"/>
	</g>
	<g>
		<g>
			<path class="st5" d="M1281.3,766.9v-0.3c0-28.2,21.7-50.3,51-50.3c19.8,0,32.5,8.3,41,20.2l-20.2,15.6
				c-5.5-6.9-11.9-11.3-21.1-11.3c-13.5,0-23.1,11.5-23.1,25.6v0.3c0,14.5,9.5,25.8,23.1,25.8c10.1,0,16-4.7,21.8-11.7l20.2,14.4
				c-9.1,12.6-21.4,21.8-42.8,21.8C1303.6,816.9,1281.3,795.8,1281.3,766.9z"/>
			<path class="st5" d="M1384,740.3h26.3v15.1c4.3-10.2,11.2-16.9,23.6-16.3v27.6h-2.2c-13.7,0-21.4,7.9-21.4,25.1V815H1384V740.3z"
				/>
			<path class="st5" d="M1438.7,778v-0.3c0-21.8,15.6-39.1,37.7-39.1c25.8,0,37.7,18.9,37.7,40.9c0,1.7,0,3.6-0.1,5.4h-50
				c2.1,8.2,8,12.3,16.2,12.3c6.2,0,11.2-2.4,16.6-7.6l14.5,12c-7.2,9.1-17.5,15.2-32.5,15.2C1455.3,816.8,1438.7,801.2,1438.7,778z
				 M1489.5,771.5c-1-8.3-5.8-13.5-13-13.5c-6.9,0-11.6,5.4-13,13.5H1489.5z"/>
			<path class="st5" d="M1521.6,793.6v-0.3c0-15.5,11.7-23.5,29.3-23.5c6.9,0,13.7,1.4,18,2.9v-1.2c0-7.7-4.8-12.2-14.9-12.2
				c-7.9,0-14,1.5-20.6,4.1l-5.4-18.5c8.4-3.5,17.4-5.8,30.3-5.8c13.4,0,22.5,3.2,28.5,9.1c5.7,5.5,8,13.3,8,23.8v43h-26v-7.7
				c-5.1,5.7-12.2,9.4-22,9.4C1532.5,816.7,1521.6,808.5,1521.6,793.6z M1569.1,787.9v-3.5c-2.6-1.1-6.4-1.9-10.2-1.9
				c-7.6,0-12,3.7-12,9.3v0.3c0,5.1,3.9,8.2,9.3,8.2C1563.7,800.2,1569.1,795.4,1569.1,787.9z"/>
			<path class="st5" d="M1611.9,791.8v-30.4h-8.8v-21.1h8.8v-18.9h26.2v18.9h17.4v21.1h-17.4v25.3c0,5.3,2.4,7.5,7.2,7.5
				c3.5,0,6.8-1,10-2.5v20.6c-4.7,2.6-10.9,4.3-18.2,4.3C1621.3,816.5,1611.9,809.6,1611.9,791.8z"/>
			<path class="st5" d="M1667.5,740.3h26.2V815l-26.2,0V740.3z M1666.9,714.1l27.4,0v19.3h-27.4V714.1z"/>
			<path class="st5" d="M1702.7,740.3h27.6l14.4,43.7l14.4-43.7h27.2l-29.8,75.3h-23.9L1702.7,740.3z"/>
			<path class="st5" d="M1787.3,778v-0.3c0-21.8,15.6-39.1,37.7-39.1c25.8,0,37.7,18.9,37.7,40.9c0,1.7,0,3.6-0.1,5.4h-50
				c2.1,8.2,8,12.3,16.2,12.3c6.2,0,11.2-2.4,16.6-7.6l14.5,12c-7.2,9.1-17.5,15.2-32.5,15.2C1803.8,816.8,1787.3,801.2,1787.3,778z
				 M1838.1,771.5c-1-8.3-5.8-13.5-13-13.5c-6.9,0-11.6,5.4-13,13.5H1838.1z"/>
			<path class="st5" d="M1872.1,788.1h27.4V815h-27.4L1872.1,788.1z"/>
		</g>
		<g>
			<path class="st5" d="M1299.9,847.9c1.3,0.4,2.5,1,3.4,1.7c1,0.7,1.7,1.6,2.2,2.6c0.5,1,0.8,2.2,0.8,3.5c0,1.1-0.2,2.1-0.5,2.9
				c-0.3,0.8-0.7,1.6-1.2,2.2c-0.5,0.6-1.1,1.2-1.7,1.6c-0.6,0.4-1.3,0.8-1.9,1.1c1,0.3,1.9,0.7,2.8,1.1c0.9,0.5,1.6,1,2.3,1.7
				c0.6,0.6,1.1,1.4,1.5,2.3c0.4,0.9,0.6,1.9,0.6,3.1c0,1.4-0.3,2.7-0.9,3.9c-0.6,1.1-1.4,2.1-2.5,2.9s-2.4,1.4-3.8,1.8
				c-1.5,0.4-3.2,0.6-5,0.6h-14.9v-33.5h14.2C1297,847.3,1298.5,847.5,1299.9,847.9z M1300.3,860.7c1.4-1,2.2-2.5,2.2-4.5
				c0-1.7-0.6-3-1.9-4c-1.3-1-3.1-1.5-5.5-1.5h-10.2v11.6h9.9C1297.1,862.2,1298.9,861.7,1300.3,860.7z M1302.2,875.8
				c1.5-1.1,2.2-2.5,2.2-4.5c0-1.9-0.7-3.3-2.2-4.3c-1.5-1-3.7-1.5-6.6-1.5h-10.6v11.9h11.2C1298.7,877.4,1300.7,876.9,1302.2,875.8
				z"/>
			<path class="st5" d="M1320,880.8h-3.7V856h3.7v6.5c0.4-1,1-2,1.7-2.8c0.7-0.9,1.4-1.6,2.3-2.2c0.9-0.6,1.8-1.1,2.8-1.4
				c1-0.3,2.1-0.5,3.3-0.4v4h-0.3c-1.3,0-2.6,0.2-3.8,0.7c-1.2,0.5-2.2,1.2-3.1,2.2c-0.9,1-1.6,2.1-2.1,3.6
				c-0.5,1.4-0.8,3.1-0.8,4.9V880.8z"/>
			<path class="st5" d="M1339,873.3c0.5,1,1.2,1.9,2,2.6c0.8,0.7,1.7,1.3,2.7,1.6c1,0.4,2,0.6,3.1,0.6c1.7,0,3.2-0.3,4.4-1
				c1.2-0.6,2.4-1.5,3.4-2.5l2.3,2.1c-1.2,1.4-2.7,2.5-4.3,3.4c-1.6,0.8-3.6,1.3-5.9,1.3c-1.7,0-3.3-0.3-4.8-0.9
				c-1.5-0.6-2.8-1.5-3.9-2.6c-1.1-1.1-2-2.5-2.7-4.1c-0.7-1.6-1-3.4-1-5.3c0-1.8,0.3-3.5,0.9-5.1c0.6-1.6,1.4-3,2.5-4.1
				c1.1-1.2,2.3-2.1,3.8-2.8c1.4-0.7,3-1,4.8-1c1.8,0,3.4,0.3,4.9,1c1.4,0.7,2.6,1.6,3.6,2.8c1,1.2,1.7,2.6,2.2,4.2
				c0.5,1.6,0.8,3.3,0.8,5.1c0,0.2,0,0.3,0,0.5s0,0.4,0,0.6h-19.6C1338.2,871.1,1338.5,872.3,1339,873.3z M1353.9,867
				c-0.1-1.1-0.3-2.2-0.7-3.2c-0.4-1-0.9-1.9-1.5-2.7c-0.7-0.8-1.4-1.4-2.4-1.8c-0.9-0.5-2-0.7-3.3-0.7c-1.1,0-2.1,0.2-3,0.6
				c-0.9,0.4-1.7,1-2.4,1.8c-0.7,0.8-1.3,1.6-1.7,2.7c-0.4,1-0.7,2.1-0.9,3.4H1353.9z"/>
			<path class="st5" d="M1370.3,859.4c-1.2,0.3-2.4,0.8-3.5,1.3l-1.1-3c1.4-0.6,2.8-1.1,4.2-1.5c1.4-0.4,3-0.6,4.8-0.6
				c3.4,0,6,0.8,7.8,2.5c1.8,1.7,2.7,4.2,2.7,7.4v15.1h-3.5V877c-0.9,1.1-2,2.1-3.5,3s-3.3,1.3-5.5,1.3c-1.2,0-2.3-0.2-3.4-0.5
				c-1.1-0.3-2.1-0.8-3-1.5c-0.9-0.7-1.6-1.5-2.1-2.4c-0.5-1-0.8-2.1-0.8-3.4c0-1.3,0.3-2.5,0.8-3.5c0.5-1,1.2-1.8,2.2-2.5
				c0.9-0.7,2.1-1.2,3.3-1.5c1.3-0.4,2.7-0.5,4.3-0.5c1.6,0,3,0.1,4.2,0.3c1.2,0.2,2.3,0.4,3.4,0.8v-0.9c0-2.2-0.6-3.9-1.9-5
				c-1.3-1.1-3.1-1.7-5.4-1.7C1372.8,858.9,1371.5,859.1,1370.3,859.4z M1369.1,869.6c-1.2,0.9-1.9,2.2-1.9,3.8
				c0,0.8,0.2,1.5,0.5,2.1c0.3,0.6,0.8,1.1,1.4,1.6c0.6,0.4,1.2,0.8,2,1c0.7,0.2,1.5,0.3,2.4,0.3c1.1,0,2.2-0.2,3.2-0.5
				c1-0.3,1.9-0.8,2.6-1.4c0.7-0.6,1.3-1.3,1.8-2.1c0.4-0.8,0.6-1.7,0.6-2.7v-2.4c-0.9-0.3-2-0.5-3.2-0.7c-1.2-0.2-2.6-0.3-4.1-0.3
				C1372.1,868.2,1370.4,868.7,1369.1,869.6z"/>
			<path class="st5" d="M1416.2,880.8h-4.4l-8.9-11.5l-5,5.1v6.5h-3.7v-34.9h3.7v24.1l13.4-13.9h4.6l-10.4,10.6L1416.2,880.8z"/>
			<path class="st5" d="M1443,847.3v33.5h-3.8v-33.5H1443z"/>
			<path class="st5" d="M1458.4,873.7c0,1.5,0.4,2.6,1.1,3.2c0.8,0.6,1.8,0.9,3,0.9c0.6,0,1.2-0.1,1.8-0.2c0.6-0.1,1.2-0.4,1.8-0.7
				v3.2c-0.6,0.4-1.3,0.6-2,0.8c-0.7,0.2-1.5,0.3-2.4,0.3c-1,0-1.9-0.1-2.8-0.4c-0.9-0.3-1.6-0.7-2.2-1.2c-0.6-0.6-1.1-1.3-1.5-2.2
				c-0.3-0.9-0.5-2-0.5-3.2v-14.9h-3.4V856h3.4v-7.5h3.7v7.5h7.9v3.3h-7.9V873.7z"/>
			<path class="st5" d="M1474.6,883.3c0.5-0.7,0.7-1.5,0.6-2.5h-1.7v-5h4.4v4.3c0,1.9-0.4,3.4-1.3,4.4c-0.9,1-2.2,1.7-4,2.1
				l-0.6-1.7C1473.2,884.5,1474.1,883.9,1474.6,883.3z"/>
			<path class="st5" d="M1519.1,871.6h-0.2l-12.2-17.9v27.1h-3.7v-33.5h3.8l12.2,18.3l12.2-18.3h3.8v33.5h-3.8v-27.1L1519.1,871.6z"
				/>
			<path class="st5" d="M1550.1,859.4c-1.2,0.3-2.4,0.8-3.5,1.3l-1.1-3c1.4-0.6,2.8-1.1,4.2-1.5c1.4-0.4,3-0.6,4.8-0.6
				c3.4,0,6,0.8,7.8,2.5c1.8,1.7,2.7,4.2,2.7,7.4v15.1h-3.5V877c-0.9,1.1-2,2.1-3.5,3c-1.5,0.9-3.3,1.3-5.5,1.3
				c-1.2,0-2.3-0.2-3.4-0.5c-1.1-0.3-2.1-0.8-3-1.5c-0.9-0.7-1.6-1.5-2.1-2.4c-0.5-1-0.8-2.1-0.8-3.4c0-1.3,0.3-2.5,0.8-3.5
				c0.5-1,1.2-1.8,2.2-2.5c0.9-0.7,2.1-1.2,3.3-1.5c1.3-0.4,2.7-0.5,4.3-0.5c1.6,0,3,0.1,4.2,0.3c1.2,0.2,2.3,0.4,3.4,0.8v-0.9
				c0-2.2-0.6-3.9-1.9-5c-1.3-1.1-3.1-1.7-5.4-1.7C1552.6,858.9,1551.3,859.1,1550.1,859.4z M1548.9,869.6c-1.2,0.9-1.9,2.2-1.9,3.8
				c0,0.8,0.2,1.5,0.5,2.1c0.3,0.6,0.8,1.1,1.4,1.6c0.6,0.4,1.2,0.8,2,1c0.7,0.2,1.5,0.3,2.4,0.3c1.1,0,2.2-0.2,3.2-0.5
				c1-0.3,1.9-0.8,2.6-1.4c0.7-0.6,1.3-1.3,1.8-2.1c0.4-0.8,0.6-1.7,0.6-2.7v-2.4c-0.9-0.3-2-0.5-3.2-0.7c-1.2-0.2-2.6-0.3-4.1-0.3
				C1551.9,868.2,1550.2,868.7,1548.9,869.6z"/>
			<path class="st5" d="M1596,880.8h-4.4l-8.9-11.5l-5,5.1v6.5h-3.7v-34.9h3.7v24.1l13.4-13.9h4.6l-10.4,10.6L1596,880.8z"/>
			<path class="st5" d="M1604.5,873.3c0.5,1,1.2,1.9,2,2.6c0.8,0.7,1.7,1.3,2.7,1.6c1,0.4,2,0.6,3.1,0.6c1.7,0,3.2-0.3,4.4-1
				c1.2-0.6,2.4-1.5,3.4-2.5l2.3,2.1c-1.2,1.4-2.7,2.5-4.3,3.4c-1.6,0.8-3.6,1.3-5.9,1.3c-1.7,0-3.3-0.3-4.8-0.9
				c-1.5-0.6-2.8-1.5-3.9-2.6c-1.1-1.1-2-2.5-2.7-4.1c-0.7-1.6-1-3.4-1-5.3c0-1.8,0.3-3.5,0.9-5.1c0.6-1.6,1.4-3,2.5-4.1
				c1.1-1.2,2.3-2.1,3.8-2.8c1.4-0.7,3-1,4.8-1c1.8,0,3.4,0.3,4.9,1c1.4,0.7,2.6,1.6,3.6,2.8c1,1.2,1.7,2.6,2.2,4.2
				c0.5,1.6,0.8,3.3,0.8,5.1c0,0.2,0,0.3,0,0.5s0,0.4,0,0.6h-19.6C1603.7,871.1,1604,872.3,1604.5,873.3z M1619.4,867
				c-0.1-1.1-0.3-2.2-0.7-3.2c-0.4-1-0.9-1.9-1.5-2.7c-0.7-0.8-1.4-1.4-2.4-1.8c-0.9-0.5-2-0.7-3.3-0.7c-1.1,0-2.1,0.2-3,0.6
				c-0.9,0.4-1.7,1-2.4,1.8c-0.7,0.8-1.3,1.6-1.7,2.7c-0.4,1-0.7,2.1-0.9,3.4H1619.4z"/>
			<path class="st5" d="M1651.1,847.3v33.5h-3.8v-33.5H1651.1z"/>
			<path class="st5" d="M1666.5,873.7c0,1.5,0.4,2.6,1.1,3.2c0.8,0.6,1.8,0.9,3,0.9c0.6,0,1.2-0.1,1.8-0.2c0.6-0.1,1.2-0.4,1.8-0.7
				v3.2c-0.6,0.4-1.3,0.6-2,0.8c-0.7,0.2-1.5,0.3-2.4,0.3c-1,0-1.9-0.1-2.8-0.4c-0.9-0.3-1.6-0.7-2.2-1.2c-0.6-0.6-1.1-1.3-1.5-2.2
				c-0.3-0.9-0.5-2-0.5-3.2v-14.9h-3.4V856h3.4v-7.5h3.7v7.5h7.9v3.3h-7.9V873.7z"/>
			<path class="st5" d="M1682.7,883.3c0.5-0.7,0.7-1.5,0.6-2.5h-1.7v-5h4.4v4.3c0,1.9-0.4,3.4-1.3,4.4c-0.9,1-2.2,1.7-4,2.1
				l-0.6-1.7C1681.3,884.5,1682.2,883.9,1682.7,883.3z"/>
			<path class="st5" d="M1735.2,850.7h-20.3v12h18.1v3.4h-18.1v14.6h-3.8v-33.5h24.1V850.7z"/>
			<path class="st5" d="M1743.5,880.8v-34.9h3.7v34.9H1743.5z"/>
			<path class="st5" d="M1774.5,856h3.6v24.7h-3.6v-4.3c-0.8,1.3-1.9,2.5-3.3,3.4c-1.3,0.9-3.1,1.4-5.2,1.4c-1.5,0-2.8-0.2-4-0.7
				c-1.2-0.5-2.2-1.2-3-2c-0.8-0.9-1.4-1.9-1.9-3.1s-0.6-2.6-0.6-4V856h3.7v14.5c0,2.3,0.6,4.1,1.8,5.5c1.2,1.3,2.9,2,5.1,2
				c1,0,2-0.2,2.9-0.6c0.9-0.4,1.7-0.9,2.3-1.6c0.7-0.7,1.2-1.5,1.6-2.5c0.4-1,0.6-2,0.6-3.2V856z"/>
			<path class="st5" d="M1809.1,880.8h-4.3l-7.7-10.1l-7.7,10.1h-4.1l9.7-12.6l-9.3-12.2h4.2l7.3,9.6l7.3-9.6h4.1l-9.4,12.1
				L1809.1,880.8z"/>
			<path class="st5" d="M1836.6,847.3v33.5h-3.8v-33.5H1836.6z"/>
			<path class="st5" d="M1851.9,873.7c0,1.5,0.4,2.6,1.1,3.2c0.8,0.6,1.8,0.9,3,0.9c0.6,0,1.2-0.1,1.8-0.2c0.6-0.1,1.2-0.4,1.8-0.7
				v3.2c-0.6,0.4-1.3,0.6-2,0.8c-0.7,0.2-1.5,0.3-2.4,0.3c-1,0-1.9-0.1-2.8-0.4c-0.9-0.3-1.6-0.7-2.2-1.2c-0.6-0.6-1.1-1.3-1.5-2.2
				c-0.3-0.9-0.5-2-0.5-3.2v-14.9h-3.4V856h3.4v-7.5h3.7v7.5h7.9v3.3h-7.9V873.7z"/>
		</g>
	</g>
</g>
</svg>
