<?xml version="1.0" encoding="UTF-8"?>
<svg id="Layer_1" data-name="Layer 1" xmlns="http://www.w3.org/2000/svg" viewBox="0 0 599.88 599.97">
  <defs>
    <style>
      .cls-1 {
        fill: #f37321;
      }
    </style>
  </defs>
  <path class="cls-1" d="M460.88,0c.67,0,1.33,0,2,0,1.05,1.42,1.93,3,3.16,4.23,40.47,40.53,80.96,81.03,121.5,121.49,3.94,3.93,8.21,7.53,12.33,11.28,0,.67,0,1.33,0,2-1.05,.7-2.24,1.25-3.11,2.12-22.91,22.8-45.79,45.62-68.65,68.48-61.15,61.13-122.29,122.28-183.42,183.44-3.66,3.66-7.22,7.42-11.65,11.97h266.83v194.97H0V0C64.92,0,129.9,0,194.88,0c-.04,.83-.11,1.66-.11,2.49,0,86.45,0,172.89,0,259.34,0,1.25,0,2.51,0,5.07,2.56-2.43,4.23-3.93,5.81-5.51,33.68-33.67,67.36-67.35,101.03-101.02C353.87,108.08,406.14,55.79,458.39,3.48c.99-1,1.67-2.31,2.49-3.48Z"/>
</svg>