<?xml version="1.0" encoding="utf-8"?>
<!-- Generator: Adobe Illustrator 26.5.0, SVG Export Plug-In . SVG Version: 6.00 Build 0)  -->
<svg version="1.1" id="Layer_1" xmlns="http://www.w3.org/2000/svg" xmlns:xlink="http://www.w3.org/1999/xlink" x="0px" y="0px"
	 viewBox="0 0 150.1 298.1" style="enable-background:new 0 0 150.1 298.1;" xml:space="preserve">
<style type="text/css">
	.st0{fill:none;}
	.st1{fill:#FFFFFF;}
</style>
<g>
	<rect x="0" y="148" class="st0" width="150.1" height="150.1"/>
	<path d="M0,223v-75h75c0,25,0.1,50,0.1,75.1C50.1,223.1,25,223.1,0,223z"/>
	<path class="st1" d="M75.1,223.1c0-25-0.1-50-0.1-75.1h75c0,25,0,50-0.1,75.1c0,0,0.1-0.1,0.1-0.1c-25,0-50.1,0-75.1,0L75.1,223.1z
		"/>
	<path class="st1" d="M0,223c25,0,50.1,0,75.1,0.1c0,0-0.1-0.1-0.1-0.1c0,25,0,50.1,0,75.1l0.1-0.1c-25,0-50,0-75.1,0.1V223z"/>
	<path d="M0,298c25,0,50,0,75.1-0.1"/>
	<path class="st1" d="M75.1,298c0,0-0.1,0.1-0.1,0.1c25,0,50.1,0,75.1,0l-0.1-0.1"/>
	<path d="M150.1,298.1c-25,0-50.1,0-75.1,0c0-25,0-50.1,0-75.1c25,0,50.1,0,75.1,0V298.1z"/>
</g>
<g>
	<rect x="0" class="st0" width="150.1" height="150.1"/>
	<path d="M0,75V0h75c0,25,0.1,50,0.1,75.1C50.1,75,25,75,0,75z"/>
	<path class="st1" d="M75.1,75.1C75.1,50,75,25,75,0h75c0,25,0,50-0.1,75.1c0,0,0.1-0.1,0.1-0.1c-25,0-50.1,0-75.1,0L75.1,75.1z"/>
	<path class="st1" d="M0,75c25,0,50.1,0,75.1,0.1c0,0-0.1-0.1-0.1-0.1c0,25,0,50.1,0,75.1l0.1-0.1c-25,0-50,0-75.1,0.1V75z"/>
	<path d="M0,150c25,0,50,0,75.1-0.1"/>
	<path class="st1" d="M75.1,149.9c0,0-0.1,0.1-0.1,0.1c25,0,50.1,0,75.1,0l-0.1-0.1"/>
	<path d="M150.1,150.1c-25,0-50.1,0-75.1,0c0-25,0-50.1,0-75.1c25,0,50.1,0,75.1,0V150.1z"/>
</g>
</svg>
