<?xml version="1.0" standalone="no"?>
<!DOCTYPE svg PUBLIC "-//W3C//DTD SVG 20010904//EN"
 "http://www.w3.org/TR/2001/REC-SVG-20010904/DTD/svg10.dtd">
<svg version="1.0" xmlns="http://www.w3.org/2000/svg"
 width="450.000000pt" height="894.000000pt" viewBox="0 0 450.000000 894.000000"
 preserveAspectRatio="xMidYMid meet">
<metadata>
Created by potrace 1.10, written by Peter Selinger 2001-2011
</metadata>
<g transform="translate(0.000000,894.000000) scale(0.100000,-0.100000)"
fill="#ffffff" stroke="none">
<path d="M0 7815 l0 -1125 1123 -2 1122 -3 0 -1120 0 -1120 -1122 -3 -1123 -2
0 -1095 0 -1095 1125 0 1125 0 0 -1125 0 -1125 1125 0 1125 0 0 1125 0 1125
-1122 2 -1123 3 -3 1093 -2 1092 1125 0 1125 0 0 1125 0 1125 -1122 2 -1123 3
-3 1123 -2 1122 -1125 0 -1125 0 0 -1125z"/>
</g>
</svg>
