<?xml version="1.0" encoding="utf-8"?>
<!-- Generator: Adobe Illustrator 26.5.0, SVG Export Plug-In . SVG Version: 6.00 Build 0)  -->
<svg version="1.1" id="Layer_1" xmlns="http://www.w3.org/2000/svg" xmlns:xlink="http://www.w3.org/1999/xlink" x="0px" y="0px"
	 viewBox="0 0 599.8751 599.9694" style="enable-background:new 0 0 599.8751 599.9694;" xml:space="preserve">
<style type="text/css">
	.st0{fill:#F37321;}
</style>
<g>
	<path class="st0" d="M460.8751,0c0.6667,0,1.3333,0,2,0c1.0471,1.4184,1.9327,2.998,3.1647,4.2317
		c40.4722,40.5258,80.9624,81.0337,121.5021,121.4919c3.939,3.9312,8.2141,7.5256,12.3332,11.2764c0,0.6667,0,1.3333,0,2
		c-1.0452,0.6994-2.2393,1.2493-3.1139,2.1201c-22.9055,22.8038-45.7948,45.6239-68.6525,68.4756
		c-61.1506,61.1345-122.2878,122.2823-183.4194,183.4357c-3.659,3.6603-7.2223,7.4165-11.6472,11.9686
		c89.9105,0,178.3718,0,266.833,0c0,64.9796,0,129.9592,0,194.9694c-199.9167,0-399.8334,0-599.8751,0C0,400.0001,0,200,0,0
		c64.916,0,129.8955,0,194.8751,0c-0.0378,0.8311-0.1087,1.6622-0.1088,2.4933c-0.0042,86.4454-0.0032,172.8909-0.0024,259.3363
		c0,1.2542,0,2.5084,0,5.0712c2.5614-2.4269,4.2251-3.9312,5.8094-5.515c33.6811-33.6693,67.3558-67.345,101.0265-101.0247
		c52.271-52.2849,104.5409-104.5709,156.7853-156.8824C459.3793,2.4831,460.0522,1.1667,460.8751,0z"/>
</g>
<g>
</g>
<g>
</g>
<g>
</g>
<g>
</g>
<g>
</g>
<g>
</g>
</svg>
